<svg xmlns="http://www.w3.org/2000/svg" xmlns:xlink="http://www.w3.org/1999/xlink" style="margin: auto;background: rgba(20, 20, 20, 0);display: block;z-index: 1;position: relative;shape-rendering: auto;" width="1440" height="405" preserveAspectRatio="xMidYMid" viewBox="0 0 1440 405">
<g transform=""><g transform="translate(467.144 239.937)" style="&#10;">
  <animateTransform attributeName="transform" type="translate" keyTimes="0;1" values="-100 239.93653035708195;1440 239.93653035708195" dur="50s" repeatCount="indefinite" begin="-15.397045945644273s"/>
  <path d="m19,1H5C2.243,1,0,3.243,0,6v2h24v-2c0-2.757-2.243-5-5-5ZM4.5,6c-.828,0-1.5-.672-1.5-1.5s.672-1.5,1.5-1.5,1.5.672,1.5,1.5-.672,1.5-1.5,1.5Zm4,0c-.828,0-1.5-.672-1.5-1.5s.672-1.5,1.5-1.5,1.5.672,1.5,1.5-.672,1.5-1.5,1.5Zm4,0c-.828,0-1.5-.672-1.5-1.5s.672-1.5,1.5-1.5,1.5.672,1.5,1.5-.672,1.5-1.5,1.5ZM0,18c0,2.757,2.243,5,5,5h14c2.757,0,5-2.243,5-5v-8H0v8Zm16.017-4c.27,0,.494.207.516.477l.212,2.681.75-1.443c.193-.372.725-.372.918,0l.75,1.443.21-2.681c.021-.269.246-.477.516-.477h.002c.303,0,.541.26.515.562l-.314,3.659c-.031.44-.337.779-.706.779-.244,0-.471-.151-.601-.4l-.831-1.6-.831,1.6c-.129.249-.356.4-.601.4-.368,0-.675-.339-.706-.779l-.314-3.659c-.026-.302.212-.562.515-.562Zm-6,0c.27,0,.494.207.516.477l.212,2.681.75-1.443c.193-.372.725-.372.918,0l.75,1.443.247-3.158h.481c.303,0,.541.26.515.562l-.314,3.659c-.031.44-.337.779-.706.779-.244,0-.471-.151-.601-.4l-.831-1.6-.831,1.6c-.129.249-.356.4-.601.4-.368,0-.675-.339-.706-.779l-.314-3.659c-.026-.302.212-.562.515-.562Zm-6,0c.27,0,.494.207.516.477l.212,2.681.75-1.443c.193-.372.725-.372.918,0l.75,1.443.21-2.681c.021-.269.246-.477.516-.477h.002c.303,0,.541.26.515.562l-.314,3.659c-.031.44-.337.779-.706.779-.244,0-.471-.151-.601-.4l-.831-1.6-.831,1.6c-.129.249-.356.4-.601.4-.368,0-.675-.339-.706-.779l-.314-3.659c-.026-.302.212-.562.515-.562Z" fill="#223344" transform="scale(0.9793233412902888)"/>
</g><g transform="translate(348.606 71.442)">
  <animateTransform attributeName="transform" type="translate" keyTimes="0;1" values="-100 71.44197460284714;1440 71.44197460284714" dur="50s" repeatCount="indefinite" begin="-11.548391482921794s"/>
  <path d="M6.892,17.153l-.864-.864,2.121-2.122,.864,.864c1.369,1.368,3.597,1.369,4.966,0l6.005-6.004c1.369-1.369,1.369-3.597,0-4.966-1.195-1.195-3.042-1.378-4.403-.489-.974-.38-2.022-.58-3.1-.58h-.002c-.233,0-.465,.01-.694,.028l1.112-1.112C14.167,.638,15.834,.003,17.502,.003c1.667,0,3.237,.577,4.684,2.025,2.454,2.545,2.43,6.61-.08,9.12l-6.005,6.004c-1.27,1.27-2.937,1.904-4.604,1.904s-3.335-.635-4.604-1.904ZM1.826,21.975c1.529,1.529,3.019,2.026,4.686,2.025,1.667,0,3.334-.635,4.602-1.904l1.112-1.112c-.23,.018-.461,.028-.694,.028h-.002c-1.078,0-2.126-.199-3.1-.58-1.36,.889-3.208,.705-4.403-.49-1.369-1.369-1.369-3.597,0-4.966l6.005-6.004c1.369-1.369,3.597-1.369,4.966,0l.864,.864,2.121-2.122-.864-.864c-2.538-2.538-6.669-2.539-9.208,0L1.906,12.855c-2.51,2.51-2.534,6.575-.08,9.12Z" fill="#223344" transform="scale(1.669862094279972)" style="&#10;"/>
</g><g transform="translate(785.422 30.2236)">
  <animateTransform attributeName="transform" type="translate" keyTimes="0;1" values="-100 30.22355357262141;1440 30.22355357262141" dur="50s" repeatCount="indefinite" begin="-25.730750845170746s"/>
  <path d="M24,15.5c0,3.584-2.916,6.5-6.5,6.5h-5c-3.584,0-6.5-2.916-6.5-6.5s2.916-6.5,6.5-6.5h1.471c-.137,1.14-.764,2-1.971,2-2.236,.26-4,2.196-4,4.5,0,2.481,2.019,4.5,4.5,4.5h5c2.481,0,4.5-2.019,4.5-4.5,0-1.778-1.045-3.304-2.545-4.034,.236-.631,.404-1.295,.484-1.987,2.378,.967,4.061,3.3,4.061,6.021ZM2,8.5c0-2.481,2.019-4.5,4.5-4.5h5c2.481,0,4.5,2.019,4.5,4.5,0,2.304-1.764,4.24-4,4.5-1.207,0-1.834,.86-1.971,2h1.471c3.584,0,6.5-2.916,6.5-6.5s-2.916-6.5-6.5-6.5H6.5C2.916,2,0,4.916,0,8.5c0,2.721,1.683,5.054,4.061,6.021,.08-.692,.247-1.355,.484-1.987-1.5-.731-2.545-2.256-2.545-4.034Z" fill="#223344" transform="scale(q.3631798112728168)"/>
</g><g transform="translate(343.504 237.166)">
  <animateTransform attributeName="transform" type="translate" keyTimes="0;1" values="-100 237.16554900547334;1440 237.16554900547334" dur="25s" repeatCount="indefinite" begin="-4.183016642050519s"/>
  <path d="m19,1H5C2.243,1,0,3.243,0,6v2h24v-2c0-2.757-2.243-5-5-5ZM4.5,6c-.828,0-1.5-.672-1.5-1.5s.672-1.5,1.5-1.5,1.5.672,1.5,1.5-.672,1.5-1.5,1.5Zm4,0c-.828,0-1.5-.672-1.5-1.5s.672-1.5,1.5-1.5,1.5.672,1.5,1.5-.672,1.5-1.5,1.5Zm4,0c-.828,0-1.5-.672-1.5-1.5s.672-1.5,1.5-1.5,1.5.672,1.5,1.5-.672,1.5-1.5,1.5ZM0,18c0,2.757,2.243,5,5,5h14c2.757,0,5-2.243,5-5v-8H0v8Zm16.017-4c.27,0,.494.207.516.477l.212,2.681.75-1.443c.193-.372.725-.372.918,0l.75,1.443.21-2.681c.021-.269.246-.477.516-.477h.002c.303,0,.541.26.515.562l-.314,3.659c-.031.44-.337.779-.706.779-.244,0-.471-.151-.601-.4l-.831-1.6-.831,1.6c-.129.249-.356.4-.601.4-.368,0-.675-.339-.706-.779l-.314-3.659c-.026-.302.212-.562.515-.562Zm-6,0c.27,0,.494.207.516.477l.212,2.681.75-1.443c.193-.372.725-.372.918,0l.75,1.443.247-3.158h.481c.303,0,.541.26.515.562l-.314,3.659c-.031.44-.337.779-.706.779-.244,0-.471-.151-.601-.4l-.831-1.6-.831,1.6c-.129.249-.356.4-.601.4-.368,0-.675-.339-.706-.779l-.314-3.659c-.026-.302.212-.562.515-.562Zm-6,0c.27,0,.494.207.516.477l.212,2.681.75-1.443c.193-.372.725-.372.918,0l.75,1.443.21-2.681c.021-.269.246-.477.516-.477h.002c.303,0,.541.26.515.562l-.314,3.659c-.031.44-.337.779-.706.779-.244,0-.471-.151-.601-.4l-.831-1.6-.831,1.6c-.129.249-.356.4-.601.4-.368,0-.675-.339-.706-.779l-.314-3.659c-.026-.302.212-.562.515-.562Z" fill="#223344" transform="scale(1.3596978995036911)"/>
</g><g transform="translate(187.596 392.007)">
  <animateTransform attributeName="transform" type="translate" keyTimes="0;1" values="-100 392.00731980599693;1440 392.00731980599693" dur="16.666666666666668s" repeatCount="indefinite" begin="-16.762447343867713s"/>
  <path d="M24,15.5c0,3.584-2.916,6.5-6.5,6.5h-5c-3.584,0-6.5-2.916-6.5-6.5s2.916-6.5,6.5-6.5h1.471c-.137,1.14-.764,2-1.971,2-2.236,.26-4,2.196-4,4.5,0,2.481,2.019,4.5,4.5,4.5h5c2.481,0,4.5-2.019,4.5-4.5,0-1.778-1.045-3.304-2.545-4.034,.236-.631,.404-1.295,.484-1.987,2.378,.967,4.061,3.3,4.061,6.021ZM2,8.5c0-2.481,2.019-4.5,4.5-4.5h5c2.481,0,4.5,2.019,4.5,4.5,0,2.304-1.764,4.24-4,4.5-1.207,0-1.834,.86-1.971,2h1.471c3.584,0,6.5-2.916,6.5-6.5s-2.916-6.5-6.5-6.5H6.5C2.916,2,0,4.916,0,8.5c0,2.721,1.683,5.054,4.061,6.021,.08-.692,.247-1.355,.484-1.987-1.5-.731-2.545-2.256-2.545-4.034Z" fill="#223344" transform="scale(1.0821652306493223)"/>
</g><g transform="translate(811.343 313.888)">
  <animateTransform attributeName="transform" type="translate" keyTimes="0;1" values="-100 313.8883715975986;1440 313.8883715975986" dur="25s" repeatCount="indefinite" begin="-11.777805392524032s"/>
  <path d="m19,1H5C2.243,1,0,3.243,0,6v2h24v-2c0-2.757-2.243-5-5-5ZM4.5,6c-.828,0-1.5-.672-1.5-1.5s.672-1.5,1.5-1.5,1.5.672,1.5,1.5-.672,1.5-1.5,1.5Zm4,0c-.828,0-1.5-.672-1.5-1.5s.672-1.5,1.5-1.5,1.5.672,1.5,1.5-.672,1.5-1.5,1.5Zm4,0c-.828,0-1.5-.672-1.5-1.5s.672-1.5,1.5-1.5,1.5.672,1.5,1.5-.672,1.5-1.5,1.5ZM0,18c0,2.757,2.243,5,5,5h14c2.757,0,5-2.243,5-5v-8H0v8Zm16.017-4c.27,0,.494.207.516.477l.212,2.681.75-1.443c.193-.372.725-.372.918,0l.75,1.443.21-2.681c.021-.269.246-.477.516-.477h.002c.303,0,.541.26.515.562l-.314,3.659c-.031.44-.337.779-.706.779-.244,0-.471-.151-.601-.4l-.831-1.6-.831,1.6c-.129.249-.356.4-.601.4-.368,0-.675-.339-.706-.779l-.314-3.659c-.026-.302.212-.562.515-.562Zm-6,0c.27,0,.494.207.516.477l.212,2.681.75-1.443c.193-.372.725-.372.918,0l.75,1.443.247-3.158h.481c.303,0,.541.26.515.562l-.314,3.659c-.031.44-.337.779-.706.779-.244,0-.471-.151-.601-.4l-.831-1.6-.831,1.6c-.129.249-.356.4-.601.4-.368,0-.675-.339-.706-.779l-.314-3.659c-.026-.302.212-.562.515-.562Zm-6,0c.27,0,.494.207.516.477l.212,2.681.75-1.443c.193-.372.725-.372.918,0l.75,1.443.21-2.681c.021-.269.246-.477.516-.477h.002c.303,0,.541.26.515.562l-.314,3.659c-.031.44-.337.779-.706.779-.244,0-.471-.151-.601-.4l-.831-1.6-.831,1.6c-.129.249-.356.4-.601.4-.368,0-.675-.339-.706-.779l-.314-3.659c-.026-.302.212-.562.515-.562Z" fill="#223344" transform="scale(1.0983081958033846)"/>
</g><g transform="translate(1405.06 153.864)">
  <animateTransform attributeName="transform" type="translate" keyTimes="0;1" values="-100 153.86394989212354;1440 153.86394989212354" dur="16.666666666666668s" repeatCount="indefinite" begin="-13.271849643149059s"/>
  <path d="m0 9v9a5.006 5.006 0 0 0 5 5h14a5.006 5.006 0 0 0 5-5v-9zm14 10h-8a1 1 0 0 1 0-2h8a1 1 0 0 1 0 2zm4-4h-12a1 1 0 0 1 0-2h12a1 1 0 0 1 0 2zm6-8v-1a5.006 5.006 0 0 0 -5-5h-14a5.006 5.006 0 0 0 -5 5v1zm-14-4a1 1 0 1 1 -1 1 1 1 0 0 1 1-1zm-3 0a1 1 0 1 1 -1 1 1 1 0 0 1 1-1zm-3 0a1 1 0 1 1 -1 1 1 1 0 0 1 1-1z" fill="#223344" transform="scale(1.80761471419730083)"/>
</g><g transform="translate(159.965 282.583)">
  <animateTransform attributeName="transform" type="translate" keyTimes="0;1" values="-100 282.58328881674186;1440 282.58328881674186" dur="25s" repeatCount="indefinite" begin="-26.203477834259647s"/>
  <path d="m0 9v9a5.006 5.006 0 0 0 5 5h14a5.006 5.006 0 0 0 5-5v-9zm14 10h-8a1 1 0 0 1 0-2h8a1 1 0 0 1 0 2zm4-4h-12a1 1 0 0 1 0-2h12a1 1 0 0 1 0 2zm6-8v-1a5.006 5.006 0 0 0 -5-5h-14a5.006 5.006 0 0 0 -5 5v1zm-14-4a1 1 0 1 1 -1 1 1 1 0 0 1 1-1zm-3 0a1 1 0 1 1 -1 1 1 1 0 0 1 1-1zm-3 0a1 1 0 1 1 -1 1 1 1 0 0 1 1-1z" fill="#223344" transform="scale(0.8138141794129217)"/>
</g><g transform="translate(1060.79 181.457)">
  <animateTransform attributeName="transform" type="translate" keyTimes="0;1" values="-100 181.4566868840346;1440 181.4566868840346" dur="50s" repeatCount="indefinite" begin="-34.671205233579826s"/>
  <path d="M6.892,17.153l-.864-.864,2.121-2.122,.864,.864c1.369,1.368,3.597,1.369,4.966,0l6.005-6.004c1.369-1.369,1.369-3.597,0-4.966-1.195-1.195-3.042-1.378-4.403-.489-.974-.38-2.022-.58-3.1-.58h-.002c-.233,0-.465,.01-.694,.028l1.112-1.112C14.167,.638,15.834,.003,17.502,.003c1.667,0,3.237,.577,4.684,2.025,2.454,2.545,2.43,6.61-.08,9.12l-6.005,6.004c-1.27,1.27-2.937,1.904-4.604,1.904s-3.335-.635-4.604-1.904ZM1.826,21.975c1.529,1.529,3.019,2.026,4.686,2.025,1.667,0,3.334-.635,4.602-1.904l1.112-1.112c-.23,.018-.461,.028-.694,.028h-.002c-1.078,0-2.126-.199-3.1-.58-1.36,.889-3.208,.705-4.403-.49-1.369-1.369-1.369-3.597,0-4.966l6.005-6.004c1.369-1.369,3.597-1.369,4.966,0l.864,.864,2.121-2.122-.864-.864c-2.538-2.538-6.669-2.539-9.208,0L1.906,12.855c-2.51,2.51-2.534,6.575-.08,9.12Z" fill="#223344" transform="scale(0.8498290349930991)"/>
</g><g transform="translate(786.253 85.6949)">
  <animateTransform attributeName="transform" type="translate" keyTimes="0;1" values="-100 85.69492333442665;1440 85.69492333442665" dur="25s" repeatCount="indefinite" begin="-11.37049282992988s"/>
  <path d="m19,1H5C2.243,1,0,3.243,0,6v2h24v-2c0-2.757-2.243-5-5-5ZM4.5,6c-.828,0-1.5-.672-1.5-1.5s.672-1.5,1.5-1.5,1.5.672,1.5,1.5-.672,1.5-1.5,1.5Zm4,0c-.828,0-1.5-.672-1.5-1.5s.672-1.5,1.5-1.5,1.5.672,1.5,1.5-.672,1.5-1.5,1.5Zm4,0c-.828,0-1.5-.672-1.5-1.5s.672-1.5,1.5-1.5,1.5.672,1.5,1.5-.672,1.5-1.5,1.5ZM0,18c0,2.757,2.243,5,5,5h14c2.757,0,5-2.243,5-5v-8H0v8Zm16.017-4c.27,0,.494.207.516.477l.212,2.681.75-1.443c.193-.372.725-.372.918,0l.75,1.443.21-2.681c.021-.269.246-.477.516-.477h.002c.303,0,.541.26.515.562l-.314,3.659c-.031.44-.337.779-.706.779-.244,0-.471-.151-.601-.4l-.831-1.6-.831,1.6c-.129.249-.356.4-.601.4-.368,0-.675-.339-.706-.779l-.314-3.659c-.026-.302.212-.562.515-.562Zm-6,0c.27,0,.494.207.516.477l.212,2.681.75-1.443c.193-.372.725-.372.918,0l.75,1.443.247-3.158h.481c.303,0,.541.26.515.562l-.314,3.659c-.031.44-.337.779-.706.779-.244,0-.471-.151-.601-.4l-.831-1.6-.831,1.6c-.129.249-.356.4-.601.4-.368,0-.675-.339-.706-.779l-.314-3.659c-.026-.302.212-.562.515-.562Zm-6,0c.27,0,.494.207.516.477l.212,2.681.75-1.443c.193-.372.725-.372.918,0l.75,1.443.21-2.681c.021-.269.246-.477.516-.477h.002c.303,0,.541.26.515.562l-.314,3.659c-.031.44-.337.779-.706.779-.244,0-.471-.151-.601-.4l-.831-1.6-.831,1.6c-.129.249-.356.4-.601.4-.368,0-.675-.339-.706-.779l-.314-3.659c-.026-.302.212-.562.515-.562Z" fill="#223344" transform="scale(1.5327884731864243)"/>
</g></g>
</svg>