<svg version="1.2" xmlns="http://www.w3.org/2000/svg" viewBox="0 0 1574 962" width="1574" height="962">
	<title>logo-svg</title>
	<style>
		.s0 { fill: #0080ff } 
		.s1 { fill: #0080ff;stroke: #000000;stroke-width: 5 } 
	</style>
	<g id="Layer">
		<g id="Layer">
			<g id="tight-bounds">
				<g id="Layer">
					<g id="Layer">
						<g id="Layer">
						</g>
					</g>
					<g id="Layer">
						<g id="Layer">
							<g id="Layer">
								<g id="Layer">
									<g id="Layer">
										<g id="Layer">
											<g id="Layer">
												<g id="Layer">
													<g id="Layer">
														<g id="Layer">
															<g id="textblocktransform">
																<g id="textblock">
																	<g id="Layer">
																		<g id="Layer">
																			<g id="Layer">
																				<g id="Layer">
																					<path id="text-0" fill-rule="evenodd" class="s0" d="m16.4 486.4q6.4 5 22.1 13.8 15.6 8.8 29.9 8.8 14.3 0 14.3-11.2 0-5-4-8.9-4.1-3.9-14.8-8.9-10.8-5.1-16.2-8-5.4-2.8-14.3-9.4-8.9-6.5-13.7-13.6-13.4-19.2-13.4-48.8 0-29.6 22.1-50 22-20.4 57.7-20.4 24.3 0 44.8 5.2 20.6 5.3 21.2 13.7 0 1 0 2 0 11.8-7.4 29.8-7.4 18-10.4 20-21.6-11.1-38.6-11.1-17 0-17 12.1 0 7.5 12.5 13.2 2.6 1.3 7.7 3.7 5.1 2.3 11.7 5.5 6.5 3.2 14.1 8.1 7.6 4.9 16.3 13 17.9 16.8 17.9 44.4 0 36-19.9 58.9-19.9 22.9-61.3 23.6-20.2 0-36.5-3.4-16.4-3.3-28.5-13.1-12.2-9.7-12.2-23.6 0-13.8 5.1-27.4 5-13.6 10.8-18zm238.8-28v108.1q0 2.4-24.2 2.4-33.7-1-33.7-3.7v-109.1h-8.8q-8.8 0-11.4-14.8-0.7-4.4-0.7-8.8 0-10.4 4-20.9 6.1-14.8 18.9-14.8 12.8 0 22.9 6.1 10.1 6.1 13.5 12.1 21.2-18.2 50.5-18.2 29.3 0 42.4 15.9 13.2 15.8 13.2 51.8v101q0 4.1-28.9 4.1-28.7 0-28.7-4.1v-97.3q0-16.8-11.8-16.8-3.4 0-9.4 2.8-6.1 2.9-7.8 4.2zm176.9-57.2v165.3q0 2.7-30.9 2.7-30.9 0-30.9-2.3v-165.4q0-2.3 30.9-2.3 30.9 0 30.9 2zm0-69.4v49.5q0 2.4-30.9 2.4-30.9 0-30.9-2v-48.5q0-3.4 30.9-3.4 30.9 0 30.9 2zm102.6 236.7v61.3q0 2.4-28.7 2.4-28.9 0-28.9-2.4v-173.4h-11.4q-8.1 0-11.1-14.8-1-4.7-1-12.1 0-7.4 4.7-17.5 6.7-14.8 21.5-14.8 9.8 0 18.1 4.5 8.2 4.6 11.4 8.4 3.2 3.9 3.2 4.6 22.6-17.5 48.8-17.5 26.3 0 45.2 20.3 18.9 20.4 18.9 63 0 42.6-18.9 66-18.9 23.4-47.8 23.4-13.2 0-24-1.4zm13.8-112.4q-5.7 0-11.1 3.7v59.6q5.8 0.7 9.3 0.7 3.5 0 5.6 0 13.8-1.4 13.8-35.4 0-28.6-17.6-28.6zm99.1 92.6v-209.4q0-7.1 34.2-7.1 34.2 0 34.2 7.1v164.9h51.8q6.1 0 8.5 15.9 1 7.7 1 15.8 0 8.1-1 16.5-2.7 16.1-8.8 16.1h-103.7q-7.5 0-11.8-6-4.4-6.1-4.4-13.8zm209.8-147.5v165.3q0 2.7-30.8 2.7-30.8 0-30.8-2.3v-165.4q0-2.3 30.8-2.3 30.8 0 30.8 2zm0-69.4v49.5q0 2.4-30.8 2.4-30.8 0-30.8-2v-48.5q0-3.4 30.8-3.4 30.8 0 30.8 2zm100.8 126.6v108.1q0 2.4-24.3 2.4-33.7-1-33.7-3.7v-109.1h-8.7q-8.8 0-11.5-14.8-0.7-4.4-0.7-8.8 0-10.4 4.1-20.9 6.1-14.8 18.9-14.8 12.8 0 22.9 6.1 10.1 6.1 13.4 12.1 21.3-18.2 50.6-18.2 29.3 0 42.4 15.9 13.1 15.8 13.1 51.8v101q0 4.1-28.8 4.1-28.8 0-28.8-4.1v-97.3q0-16.8-11.7-16.8-3.4 0-9.5 2.8-6 2.9-7.7 4.2zm115.1 108.1v-230.9q0-5.4 30.7-5.4 28.6 1 28.6 4.3v129.3l33.3-61.6q2.4-5 28.7-5 26.3 0 33.7 3.3l-43.8 71.4 50.5 94.6q0.7 1.4-12.6 2.2-13.3 0.9-22.1 0.9-32.3 0-34.7-3.1l-33.3-74.7v74.4q0 4.4-29.5 4.4-29.5 0-29.5-4.1z"/>
																				</g>
																			</g>
																		</g>
																	</g>
																</g>
															</g>
														</g>
													</g>
												</g>
											</g>
										</g>
									</g>
								</g>
							</g>
							<path id="Layer" class="s1" d="m614.1 299.5v-296.5h956.4v956h-956.4v-296.5h27.3v269.3h901.9v-901.6h-901.9v269.3z"/>
						</g>
					</g>
				</g>
			</g>
		</g>
	</g>
</svg>