<?xml version="1.0" standalone="no"?>
<!DOCTYPE svg PUBLIC "-//W3C//DTD SVG 20010904//EN"
 "http://www.w3.org/TR/2001/REC-SVG-20010904/DTD/svg10.dtd">
<svg version="1.0" xmlns="http://www.w3.org/2000/svg"
 width="512.000000pt" height="512.000000pt" viewBox="0 0 512.000000 512.000000"
 preserveAspectRatio="xMidYMid meet">
<metadata>
Created by potrace 1.14, written by Peter Selinger 2001-2017
</metadata>
<g transform="translate(0.000000,512.000000) scale(0.100000,-0.100000)"
fill="#000000" stroke="none">
<path d="M4917 5113 c-1 -1 -33 -4 -72 -7 -38 -4 -99 -11 -135 -17 -36 -5 -76
-12 -90 -14 -14 -2 -41 -6 -61 -9 -254 -38 -673 -160 -967 -282 -326 -135
-561 -276 -876 -524 -34 -27 -291 -283 -339 -338 l-46 -54 -58 30 c-169 85
-353 115 -508 82 -71 -15 -204 -74 -272 -121 -228 -157 -448 -530 -507 -864
-3 -16 -8 -41 -11 -55 -3 -14 -8 -69 -10 -122 -4 -95 -4 -97 24 -127 23 -25
37 -31 69 -31 34 0 50 8 99 50 64 55 141 99 218 126 63 21 80 24 185 31 75 4
88 3 110 -15 24 -19 24 -22 11 -54 -19 -47 -112 -310 -116 -328 -2 -8 -12 -47
-23 -86 -19 -68 -23 -147 -9 -190 6 -18 -4 -28 -75 -71 -148 -91 -256 -206
-321 -343 -56 -119 -121 -329 -141 -460 -40 -255 -41 -277 -15 -318 30 -48 86
-50 300 -12 266 47 485 124 622 218 66 46 160 152 218 247 45 73 55 84 73 79
79 -25 225 6 491 106 74 28 138 50 143 50 5 0 16 -8 25 -18 13 -14 16 -35 13
-107 -2 -50 -6 -101 -10 -115 -3 -14 -9 -38 -12 -55 -15 -68 -75 -170 -151
-258 -56 -64 -41 -143 32 -167 68 -22 290 10 464 67 151 50 380 171 475 253
17 14 55 50 87 80 258 249 313 589 147 903 l-31 57 44 37 c85 71 316 309 391
403 157 198 283 399 393 627 75 156 70 144 123 278 69 173 180 535 208 678 2
12 8 47 14 77 13 68 17 88 24 120 3 14 8 41 11 60 2 19 7 51 9 70 6 40 15 108
21 159 13 105 15 197 5 222 -17 39 -68 60 -136 57 -30 -2 -56 -4 -57 -5z"/>
<path d="M717 2273 c-88 -87 -165 -171 -172 -187 -14 -33 -6 -78 21 -107 20
-22 78 -35 104 -23 18 8 167 152 293 281 57 59 67 99 37 149 -23 37 -38 44
-88 44 -33 0 -49 -13 -195 -157z"/>
<path d="M752 1723 c-30 -6 -740 -716 -748 -748 -16 -64 37 -125 107 -125 29
0 69 36 391 358 197 196 360 365 363 374 21 63 3 112 -50 134 -19 8 -36 13
-37 13 -2 -1 -13 -4 -26 -6z"/>
<path d="M2297 1012 c-10 -4 -89 -79 -177 -167 -176 -176 -189 -196 -153 -257
23 -39 74 -60 113 -46 15 5 99 82 188 172 155 155 162 164 162 202 -1 73 -68
121 -133 96z"/>
<path d="M785 865 c-16 -7 -189 -173 -382 -368 -383 -385 -375 -375 -338 -447
17 -32 72 -55 110 -46 39 10 741 717 748 752 15 80 -64 143 -138 109z"/>
<path d="M1585 865 c-40 -20 -720 -704 -730 -733 -11 -36 3 -90 28 -107 35
-24 84 -29 112 -11 13 9 181 173 373 365 256 255 351 356 355 377 15 80 -66
144 -138 109z"/>
</g>
</svg>
